<svg width="40" height="40" viewBox="0 0 40 40" fill="none" xmlns="http://www.w3.org/2000/svg">
<path fill-rule="evenodd" clip-rule="evenodd" d="M0 19.9685C0 8.95804 8.95804 0 19.9685 0C30.9789 0 39.937 8.95804 39.937 19.9685C39.937 30.9789 30.9789 39.937 19.9685 39.937C8.95804 39.937 0 30.9789 0 19.9685ZM27.7726 35.5788C22.91 33.1766 17.0271 33.1766 12.1645 35.5788C14.5169 36.7599 17.1618 37.441 19.9685 37.441C22.7751 37.441 25.4202 36.7599 27.7726 35.5788ZM30.2138 34.0914C23.9965 30.3772 15.9404 30.3772 9.72312 34.0914C5.35319 30.9125 2.49601 25.7739 2.49601 19.9685H7.48812V17.4725H2.69529C3.22696 13.7809 4.90645 10.4614 7.37326 7.89015L10.2609 10.7778L12.0257 9.01297L9.22841 6.21572C11.8864 4.13544 15.1549 2.81319 18.7204 2.55942V6.24029H21.2165V2.55935C24.7821 2.81319 28.0505 4.13536 30.7085 6.21565L27.9113 9.0129L29.6761 10.7777L32.5637 7.89007C35.0305 10.4614 36.71 13.7809 37.2417 17.4724H32.4488V19.9685H37.4409C37.4409 25.7739 34.5838 30.9125 30.2138 34.0914ZM18.7802 10.8508C18.1452 12.8288 14.9763 22.8058 14.9763 24.9606C14.9763 27.7138 17.2152 29.9527 19.9684 29.9527C22.7217 29.9527 24.9605 27.7138 24.9605 24.9606C24.9605 22.8058 21.7917 12.8288 21.1567 10.8508C20.8252 9.81725 19.1116 9.81725 18.7802 10.8508ZM19.9684 27.4567C18.5924 27.4567 17.4723 26.3366 17.4723 24.9606C17.4723 23.9404 18.735 19.4651 19.9684 15.4175C21.2018 19.4651 22.4645 23.9404 22.4645 24.9606C22.4645 26.3366 21.3444 27.4567 19.9684 27.4567Z" fill="#2BD0D0"/>
</svg>
